<?xml version="1.0" encoding="utf-8"?>
<!-- Generator: Adobe Illustrator 18.1.0, SVG Export Plug-In . SVG Version: 6.00 Build 0)  -->
<svg version="1.1" id="Capa_1" xmlns="http://www.w3.org/2000/svg" xmlns:xlink="http://www.w3.org/1999/xlink" x="0px" y="0px"
	 viewBox="156 -156 512 512" enable-background="new 156 -156 512 512" xml:space="preserve">
<path id="gamepad-2-icon" fill="#86C0CE" d="M546.8,76.8V184H277.2V76.8L546.8,76.8L546.8,76.8z M569.8,53.8H254.2V207h315.5V53.8z
	 M365.3,140.8h-24.1v24.1h-20.7v-24.1h-24.1v-20.7h24.1V96h20.7v24.1h24.1V140.8z M427.3,164.9h-30.6v-11.5h30.6V164.9z
	 M475.8,144.2c-7.6,0-13.8-6.2-13.8-13.8c0-7.6,6.2-13.8,13.8-13.8c7.6,0,13.8,6.2,13.8,13.8C489.5,138,483.4,144.2,475.8,144.2z
	 M513.7,144.2c-7.6,0-13.8-6.2-13.8-13.8c0-7.6,6.2-13.8,13.8-13.8c7.6,0,13.8,6.2,13.8,13.8C527.5,138,521.3,144.2,513.7,144.2z
	 M419.4,30.1v8.4h-15.5v-8.4c0-20.5-6.3-23.8-28.4-27.9c-34-6.3-45.1-17.8-39.3-55.2l15.4,2.1c-4.7,29.5,1.6,33.1,26.7,37.8
	C397.6-9.5,419.4-4.9,419.4,30.1z"/>
</svg>
