<?xml version="1.0" encoding="utf-8"?>
<!-- Generator: Adobe Illustrator 18.1.0, SVG Export Plug-In . SVG Version: 6.00 Build 0)  -->
<svg version="1.1" id="Capa_1" xmlns="http://www.w3.org/2000/svg" xmlns:xlink="http://www.w3.org/1999/xlink" x="0px" y="0px"
	 viewBox="156 -156 512 512" enable-background="new 156 -156 512 512" xml:space="preserve">
<path id="glasses-7" fill="#86C0CE" d="M509.9,31.3c-55.6,0-60.5,16-97.9,15.9c-37.4,0.2-42.2-15.9-97.9-15.9
	c-36.4,0-75.5,5.7-108.1,12.3v25.1c5.6,4.7,17.2,7.7,17.2,24.3c0.1,65.7,27.3,75.3,79,75.6c69.5,0,78.9-15.9,90.5-71.2
	c2.6-12.3,8.8-19.7,19.3-19.7s16.7,7.4,19.3,19.7c11.6,55.3,21,71.2,90.5,71.2c51.8-0.3,78.9-9.9,79-75.6
	c0-16.7,11.6-19.6,17.2-24.3V43.6C585.3,37,546.2,31.3,509.9,31.3z M376.1,92.9c-9.6,45.7-11.8,59.1-73.8,58.6
	c-48.8-0.3-62-9.8-62-58.8c0-26,0-44.2,73.8-44.2c33,0,53.3,7.6,60.3,17.7C378.1,71.5,378.7,80.5,376.1,92.9z M521.7,151.5
	c-61.9,0.5-64.1-12.9-73.8-58.6c-2.6-12.4-2-21.4,1.7-26.7c6.9-10.1,27.2-17.7,60.3-17.7c73.8,0,73.8,18.2,73.8,44.2
	C583.7,141.7,570.5,151.2,521.7,151.5z M508.5,63.1c59,0,59,14.5,59,35.4c0,4-0.2,7.4-0.4,10.8C558.5,79.6,544.5,72.6,508.5,63.1z
	 M256.9,109.2c-0.2-3.4-0.4-6.8-0.4-10.8c0-20.8,0-35.4,59-35.4C279.5,72.6,265.5,79.6,256.9,109.2z"/>
</svg>
