<?xml version="1.0" encoding="utf-8"?>
<!-- Generator: Adobe Illustrator 18.1.0, SVG Export Plug-In . SVG Version: 6.00 Build 0)  -->
<svg version="1.1" id="Capa_1" xmlns="http://www.w3.org/2000/svg" xmlns:xlink="http://www.w3.org/1999/xlink" x="0px" y="0px"
	 viewBox="156 -156 512 512" enable-background="new 156 -156 512 512" xml:space="preserve">
<path id="sound-wave-4-icon" fill="#86C0CE" d="M393.1,204.8c-34.1,0-33-85.1-47.1-120.9c-0.8-2-3.6-2-4.4-0.1
	c-12.4,29-8.9,95-39.9,95c-32.8,0-25.6-62.8-49-62.8H206V95h46.6c33.3,0,37.1,40.4,45.8,58.5c1,2.1,4.1,2,5-0.1
	c12-27.7,8.8-96.2,41.3-96.2c31.5,0,29,81.4,44.7,119.1c0.9,2.1,3.9,1.9,4.5-0.3c15-53.4,4.4-180.8,44.8-180.8
	c38.4,0,31.4,99.1,44.9,140.4c0.8,2.3,3.9,2.6,5.1,0.4c11.7-21.8,9.8-70.8,36.5-70.8c28.3,0,24.8,49.3,46,49.3H618v21h-46.9
	c-28.6,0-35.6-30.1-42.9-44.4c-1-2-3.9-1.8-4.6,0.3c-8.5,22.8-10.2,70.5-40.1,70.5c-34.4,0-24.1-101.4-42-140.5
	c-0.9-2-3.9-2-4.7,0.1C417.6,69.6,431.4,204.8,393.1,204.8z"/>
</svg>
