<?xml version="1.0" encoding="utf-8"?>
<!-- Generator: Adobe Illustrator 18.1.0, SVG Export Plug-In . SVG Version: 6.00 Build 0)  -->
<svg version="1.1" id="Capa_1" xmlns="http://www.w3.org/2000/svg" xmlns:xlink="http://www.w3.org/1999/xlink" x="0px" y="0px"
	 viewBox="156 -156 512 512" enable-background="new 156 -156 512 512" xml:space="preserve">
<path id="stream-4-icon" fill="#86C0CE" d="M513.9,101c-20.2,0-39.2-7.8-53.5-22v30.5h-90.5V32.8h68.4c-0.8-7.7-0.4-15.6,1.2-23.5
	H297.3v221.8h233.5v-132C525.3,100.4,519.7,101,513.9,101z M346.9,208h-25.5v-22h25.5V208z M346.9,169.7h-25.5v-22h25.5V169.7z
	 M346.9,131.2h-25.5v-22h25.5V131.2z M346.9,93.1h-25.5v-22h25.5V93.1z M346.9,54.8h-25.5v-22h25.5V54.8z M460.4,208h-90.5v-76.6
	h90.5V208L460.4,208z M508.9,208h-25.5v-22h25.5V208L508.9,208z M508.9,169.7h-25.5v-22h25.5V169.7L508.9,169.7z M508.9,131.2h-25.5
	v-22h25.5V131.2L508.9,131.2z M460,9.2c6.8-23.3,28.4-40.3,53.9-40.3c34.2,0,60.5,30.4,55.5,64.4h-4.6c-5.8,0-6.5-0.7-9.7-9.3
	c-2.5-6.9-5.8-15.3-13.4-15.3c-7.6,0-10.8,8.5-13.4,15.3c-2.2,5.6-3.2,9-5.1,9c-1.8,0-2.9-3.3-5.1-9c-2.7-6.8-5.8-15.3-13.4-15.3
	c-7.6,0-10.9,8.5-13.4,15.3c-2.3,6.1-3.1,9-5.1,9c-1.9,0-2.6-2.9-5.1-9c-2.8-6.7-5.9-14.7-14.2-14.7L460,9.2L460,9.2z M560.3,42.4
	c-7.6,0-10.7-8-13.4-14.8c-2.8-6.9-3.3-9.2-5.1-9.2c-1.8,0-2.5,2.8-5.1,9.2c-2.7,6.7-5.8,15.3-13.4,15.3s-10.8-8.5-13.4-15.3
	c-2.4-6.3-3.2-9-5.1-9c-1.9,0-2.5,2.5-5.1,9c-2.7,6.8-5.8,15.3-13.4,15.3c-7.6,0-11-8.4-13.4-15.3c-3.1-8.6-4-9.4-9.7-9.4h-4.9
	c-4,33.6,22.3,62.8,55.7,62.8c24.9,0,46-16.2,53.3-38.7H560.3z"/>
</svg>
